<svg width="69" height="69" viewBox="0 0 69 69" fill="none" xmlns="http://www.w3.org/2000/svg">
<circle cx="34.5" cy="34.5" r="34.5" fill="black"/>
<path d="M46.6416 29.6666H23.3591C22.4246 29.6666 21.667 30.5621 21.667 31.6666C21.667 32.7712 22.4246 33.6666 23.3591 33.6666H46.6416C47.5761 33.6666 48.3337 32.7712 48.3337 31.6666C48.3337 30.5621 47.5761 29.6666 46.6416 29.6666Z" stroke="white" stroke-width="1.5" stroke-miterlimit="10"/>
<path d="M45.6663 33.6666L43.0354 45.4228C42.8282 46.3472 42.0518 47 41.1583 47H28.841C27.9475 47 27.1705 46.3472 26.964 45.4228L24.333 33.6666" stroke="white" stroke-width="1.5" stroke-miterlimit="10"/>
<path d="M35 36.6931V43.3221" stroke="white" stroke-width="1.5" stroke-miterlimit="10" stroke-linecap="round"/>
<path d="M39.29 36.6931V43.3221" stroke="white" stroke-width="1.5" stroke-miterlimit="10" stroke-linecap="round"/>
<path d="M30.709 36.6931V43.3221" stroke="white" stroke-width="1.5" stroke-miterlimit="10" stroke-linecap="round"/>
<path d="M31.0003 23L25.667 29.6667" stroke="white" stroke-width="1.5" stroke-miterlimit="10" stroke-linecap="round"/>
<path d="M39 23L44.3333 29.6667" stroke="white" stroke-width="1.5" stroke-miterlimit="10" stroke-linecap="round"/>
</svg>
