<svg width="69" height="69" viewBox="0 0 69 69" fill="none" xmlns="http://www.w3.org/2000/svg">
<circle cx="34.5" cy="34.5" r="34.5" fill="black"/>
<path d="M33.7349 24.5302H25.3855C24.7528 24.5302 24.1461 24.7816 23.6987 25.2289C23.2513 25.6763 23 26.2831 23 26.9158V43.6145C23 44.2472 23.2513 44.8539 23.6987 45.3013C24.1461 45.7487 24.7528 46 25.3855 46H42.0842C42.7169 46 43.3237 45.7487 43.7711 45.3013C44.2184 44.8539 44.4698 44.2472 44.4698 43.6145V35.2651M42.6806 22.7411C43.1551 22.2666 43.7987 22 44.4698 22C45.1408 22 45.7844 22.2666 46.2589 22.7411C46.7334 23.2156 47 23.8592 47 24.5302C47 25.2013 46.7334 25.8449 46.2589 26.3194L34.9276 37.6506L30.1566 38.8434L31.3494 34.0724L42.6806 22.7411Z" stroke="white" stroke-width="1.5" stroke-linecap="round" stroke-linejoin="round"/>
</svg>
