<svg width="69" height="69" viewBox="0 0 69 69" fill="none" xmlns="http://www.w3.org/2000/svg">
<circle cx="34.5" cy="34.5" r="34.5" fill="black"/>
<path d="M47.75 37.55L44.0028 34.852C42.0556 33.45 39.3945 33.5949 37.6111 35.2L32.3889 39.9C30.6055 41.5051 27.9444 41.65 25.9972 40.248L22.25 37.55M27.35 47.75H42.65C45.4667 47.75 47.75 45.4667 47.75 42.65V27.35C47.75 24.5333 45.4667 22.25 42.65 22.25H27.35C24.5333 22.25 22.25 24.5333 22.25 27.35V42.65C22.25 45.4667 24.5333 47.75 27.35 47.75ZM33.725 30.5375C33.725 32.2979 32.2979 33.725 30.5375 33.725C28.7771 33.725 27.35 32.2979 27.35 30.5375C27.35 28.7771 28.7771 27.35 30.5375 27.35C32.2979 27.35 33.725 28.7771 33.725 30.5375Z" stroke="white" stroke-width="1.5" stroke-linecap="round"/>
</svg>
